<svg width="12" height="10" viewBox="0 0 12 10" fill="none" xmlns="http://www.w3.org/2000/svg">
<path d="M10.3406 3.00009C10.909 2.0156 11.1931 1.52286 11.1506 1.11894C11.1136 0.766617 10.9287 0.446841 10.6421 0.238611C10.3136 -3.62396e-05 9.74558 -3.62396e-05 8.60956 -3.62396e-05H2.54523C1.40921 -3.62396e-05 0.841253 -3.62396e-05 0.512782 0.238611C0.226179 0.446841 0.0411816 0.766617 0.0041523 1.11894C-0.0383015 1.52286 0.245731 2.0156 0.814127 3.00009L3.84521 8.25009C4.41361 9.23458 4.69793 9.72674 5.06897 9.89193C5.3926 10.036 5.76239 10.036 6.08602 9.89193C6.4569 9.7268 6.74106 9.23464 7.30898 8.25097L10.3406 3.00009Z" fill="black"/>
</svg>
